<svg width="10" height="6" viewBox="0 0 10 6" fill="none" xmlns="http://www.w3.org/2000/svg">
<mask id="path-1-inside-1_4515_8877" fill="white">
<path fill-rule="evenodd" clip-rule="evenodd" d="M3.80342 5.63937L8.64525 0.249512L9.38914 0.917845L5.03997 5.75174H3.70247L3.70273 5.75145H2.5655L0.611328 3.58256L1.35522 2.91423L3.80342 5.63937Z"/>
</mask>
<path d="M8.64525 0.249512L9.23931 -0.41171L8.57805 -1.00581L7.984 -0.344511L8.64525 0.249512ZM3.80342 5.63937L3.14218 6.23341L3.80344 6.96947L4.46467 6.23339L3.80342 5.63937ZM9.38914 0.917845L10.0499 1.51238L10.6449 0.85111L9.9832 0.256624L9.38914 0.917845ZM5.03997 5.75174V6.64062H5.43593L5.70077 6.34627L5.03997 5.75174ZM3.70247 5.75174L3.04133 5.15759L1.70857 6.64062H3.70247V5.75174ZM3.70273 5.75145L4.36387 6.3456L5.69664 4.86256H3.70273V5.75145ZM2.5655 5.75145L1.90512 6.34645L2.16991 6.64034H2.5655V5.75145ZM0.611328 3.58256L0.0172659 2.92134L-0.644894 3.51624L-0.0490496 4.17756L0.611328 3.58256ZM1.35522 2.91423L2.01646 2.32018L1.4224 1.65892L0.761155 2.253L1.35522 2.91423ZM7.984 -0.344511L3.14216 5.04535L4.46467 6.23339L9.30651 0.843534L7.984 -0.344511ZM9.9832 0.256624L9.23931 -0.41171L8.05119 0.910733L8.79508 1.57907L9.9832 0.256624ZM5.70077 6.34627L10.0499 1.51238L8.72835 0.323311L4.37918 5.1572L5.70077 6.34627ZM3.70247 6.64062H5.03997V4.86285H3.70247V6.64062ZM3.04159 5.1573L3.04133 5.15759L4.36362 6.34588L4.36387 6.3456L3.04159 5.1573ZM2.5655 6.64034H3.70273V4.86256H2.5655V6.64034ZM-0.0490496 4.17756L1.90512 6.34645L3.22587 5.15645L1.27171 2.98756L-0.0490496 4.17756ZM0.761155 2.253L0.0172659 2.92134L1.20539 4.24378L1.94928 3.57545L0.761155 2.253ZM4.46466 5.04533L2.01646 2.32018L0.693977 3.50827L3.14218 6.23341L4.46466 5.04533Z" fill="#C5C5C5" mask="url(#path-1-inside-1_4515_8877)"/>
</svg>
