<svg width="24" height="24" viewBox="0 0 24 24" fill="none" xmlns="http://www.w3.org/2000/svg">
<path fill-rule="evenodd" clip-rule="evenodd" d="M4.13875 13.3538L9.76375 21.5H11.7894H12.2106H14.2363L19.8613 13.3538C21.8751 10.4375 22.2501 9.32875 22.2501 7.63625C22.2486 6.27449 21.7069 4.96893 20.744 4.00602C19.7811 3.04311 18.4756 2.50149 17.1138 2.5C14.3703 2.5 12.2367 4.53711 12 7.21988C11.7633 4.53711 9.6298 2.5 6.88625 2.5C5.52449 2.50149 4.21893 3.04311 3.25602 4.00602C2.29311 4.96893 1.75149 6.27449 1.75 7.63625C1.75 9.32875 2.125 10.4375 4.13875 13.3538ZM11.9782 7.71875H9.89688C9.89688 5.90625 8.61312 4.50313 6.88625 4.50313C5.15937 4.50313 3.875 5.90875 3.875 7.63625C3.875 9.2725 4.6175 10.3975 5.8325 12.1737L12 21.1921L18.1676 12.1737C19.3826 10.3975 20.1251 9.2725 20.1251 7.63625C20.1251 5.90875 18.8407 4.50313 17.1138 4.50313C15.3869 4.50313 14.1032 5.90625 14.1032 7.71875H12.0219H11.9782Z" fill="#C5C5C5"/>
</svg>
