<svg width="16" height="16" viewBox="0 0 16 16" fill="none" xmlns="http://www.w3.org/2000/svg">
<mask id="path-1-inside-1_4604_3743" fill="white">
<path fill-rule="evenodd" clip-rule="evenodd" d="M6.20393 11.9589L13.4665 3.87427L14.5824 4.87677L8.05863 12.1276H6.05238L6.05269 12.1273H4.34727L1.41602 8.87393L2.53185 7.87143L6.20393 11.9589Z"/>
</mask>
<path d="M13.4665 3.87427L14.3576 2.88244L13.3657 1.99129L12.4747 2.98323L13.4665 3.87427ZM6.20393 11.9589L5.21207 12.85L6.20396 13.9541L7.19581 12.8499L6.20393 11.9589ZM14.5824 4.87677L15.5736 5.76857L16.466 4.77667L15.4735 3.88494L14.5824 4.87677ZM8.05863 12.1276V13.4609H8.65257L9.04982 13.0194L8.05863 12.1276ZM6.05238 12.1276L5.06036 11.2367L3.06291 13.4609H6.05238V12.1276ZM6.05269 12.1273L7.04471 13.0181L9.04215 10.7939H6.05269V12.1273ZM4.34727 12.1273L3.3567 13.0198L3.75389 13.4606H4.34727V12.1273ZM1.41602 8.87393L0.524922 7.8821L-0.468318 8.77445L0.425449 9.76643L1.41602 8.87393ZM2.53185 7.87143L3.52371 6.98036L2.63262 5.98847L1.64076 6.8796L2.53185 7.87143ZM12.4747 2.98323L5.21204 11.0679L7.19581 12.8499L14.4584 4.7653L12.4747 2.98323ZM15.4735 3.88494L14.3576 2.88244L12.5755 4.8661L13.6913 5.8686L15.4735 3.88494ZM9.04982 13.0194L15.5736 5.76857L13.5912 3.98497L7.06743 11.2358L9.04982 13.0194ZM6.05238 13.4609H8.05863V10.7943H6.05238V13.4609ZM5.06066 11.2364L5.06036 11.2367L7.0444 13.0185L7.04471 13.0181L5.06066 11.2364ZM4.34727 13.4606H6.05269V10.7939H4.34727V13.4606ZM0.425449 9.76643L3.3567 13.0198L5.33783 11.2348L2.40658 7.98143L0.425449 9.76643ZM1.64076 6.8796L0.524922 7.8821L2.30711 9.86576L3.42294 8.86326L1.64076 6.8796ZM7.19579 11.0678L3.52371 6.98036L1.53999 8.76249L5.21207 12.85L7.19579 11.0678Z" fill="white" mask="url(#path-1-inside-1_4604_3743)"/>
</svg>
