<svg width="14" height="10" viewBox="0 0 14 10" fill="none" xmlns="http://www.w3.org/2000/svg">
<mask id="path-1-inside-1_4604_3928" fill="white">
<path fill-rule="evenodd" clip-rule="evenodd" d="M5.20411 8.95884L12.4667 0.874209L13.5826 1.87671L7.05881 9.12754H5.05256L5.05286 9.1272H3.34744L0.416193 5.87387L1.53203 4.87137L5.20411 8.95884Z"/>
</mask>
<path d="M12.4665 0.874298L13.3576 -0.117534L12.3657 -1.00868L11.4747 -0.0167359L12.4665 0.874298ZM5.20393 8.95893L4.21207 9.84999L5.20396 10.9541L6.19581 9.84996L5.20393 8.95893ZM13.5824 1.8768L14.5736 2.7686L15.466 1.7767L14.4735 0.884966L13.5824 1.8768ZM7.05863 9.12763V10.461H7.65257L8.04982 10.0194L7.05863 9.12763ZM5.05238 9.12763L4.06036 8.23675L2.06291 10.461H5.05238V9.12763ZM5.05269 9.12729L6.04471 10.0182L8.04215 7.79396H5.05269V9.12729ZM3.34727 9.12729L2.3567 10.0198L2.75389 10.4606H3.34727V9.12729ZM0.416016 5.87396L-0.475078 4.88213L-1.46832 5.77448L-0.574551 6.76646L0.416016 5.87396ZM1.53185 4.87146L2.52371 3.9804L1.63262 2.9885L0.640756 3.87963L1.53185 4.87146ZM11.4747 -0.0167359L4.21204 8.06789L6.19581 9.84996L13.4584 1.76533L11.4747 -0.0167359ZM14.4735 0.884966L13.3576 -0.117534L11.5755 1.86613L12.6913 2.86863L14.4735 0.884966ZM8.04982 10.0194L14.5736 2.7686L12.5912 0.984996L6.06743 8.23583L8.04982 10.0194ZM5.05238 10.461H7.05863V7.7943H5.05238V10.461ZM4.06066 8.23641L4.06036 8.23675L6.0444 10.0185L6.04471 10.0182L4.06066 8.23641ZM3.34727 10.4606H5.05269V7.79396H3.34727V10.4606ZM-0.574551 6.76646L2.3567 10.0198L4.33783 8.23479L1.40658 4.98146L-0.574551 6.76646ZM0.640756 3.87963L-0.475078 4.88213L1.30711 6.86579L2.42294 5.86329L0.640756 3.87963ZM6.19579 8.06787L2.52371 3.9804L0.539989 5.76252L4.21207 9.84999L6.19579 8.06787Z" fill="#C5C5C5" mask="url(#path-1-inside-1_4604_3928)"/>
</svg>
