<svg width="126" height="20" viewBox="0 0 126 20" fill="none" xmlns="http://www.w3.org/2000/svg">
<path fill-rule="evenodd" clip-rule="evenodd" d="M26.7234 0.400391C21.6454 0.400391 17.9035 4.00014 17.9035 10.0001C17.9035 16.0014 21.6441 19.6012 26.7234 19.6012C31.8026 19.6012 35.5445 16.0001 35.5445 10.0001C35.5445 4.00014 31.8013 0.400391 26.7234 0.400391ZM32.8763 10.0001C32.8763 14.5338 30.3367 17.2009 26.8623 17.2009H26.5948C23.1204 17.2009 20.5808 14.5325 20.5808 10.0001C20.5808 5.46775 23.1204 2.80065 26.5948 2.80065H26.8623C30.3367 2.80065 32.8763 5.46646 32.8763 10.0001ZM38.5048 0.667301V19.3344L52.1364 19.337V16.9367H41.1781V0.667301H38.5048ZM54.7448 19.3344V0.667301H57.4182V16.9367H68.3764V19.337L54.7448 19.3344ZM77.8402 0.400391C72.761 0.400391 69.0191 4.00014 69.0191 10.0001C69.0191 16.0014 72.7623 19.6012 77.8402 19.6012C82.9181 19.6012 86.66 16.0001 86.66 10.0001C86.66 4.00014 82.9194 0.400391 77.8402 0.400391ZM83.9919 10.0001C83.9919 14.5338 81.4523 17.2009 77.9778 17.2009L77.7065 17.1957C74.232 17.1957 71.6963 14.5325 71.6963 10.0001C71.6963 5.46775 74.2359 2.80065 77.7104 2.80065H77.9778C81.4523 2.80065 83.9919 5.46646 83.9919 10.0001ZM97.83 17.2411C94.2491 17.2411 91.6406 14.6777 91.6406 10.0002C91.6406 5.1958 94.5269 2.84088 97.7521 2.84088C100.808 2.84088 102.546 4.43155 103.126 6.72688H106.002C105.272 2.76186 101.837 0.435431 97.8832 0.435431C92.4807 0.435431 89.0023 4.24501 89.0023 9.99501C89.0023 15.4225 92.1911 19.631 97.6729 19.631C101.809 19.631 105.354 17.4367 106.112 13.3409H103.235C102.625 15.723 100.862 17.2411 97.83 17.2411ZM15.1108 0.667301V3.06756H3.35011V9.06751H15.1107V11.4665H6.02343V19.3331H3.35009V9.06756H0.676758V0.667301H15.1108ZM125.207 19.3331H122.428L120.566 13.8667H111.626L109.758 19.3331H107.031L113.525 0.667301H116.071H116.141H118.794L125.207 19.3331ZM112.447 11.4664H119.749L116.104 0.765746L112.447 11.4664Z" fill="black"/>
</svg>
